<?xml version="1.0" encoding="UTF-8"?>
<svg width="193px" height="136px" viewBox="0 0 193 136" version="1.1" xmlns="http://www.w3.org/2000/svg" xmlns:xlink="http://www.w3.org/1999/xlink">
    <title>atoms/img/ilustraciones/size/envio_mediano</title>
    <defs>
        <polygon id="path-1" points="0 0.0267824864 192.19344 0.0267824864 192.19344 134.56 0 134.56"></polygon>
    </defs>
    <g id="UI-KIT" stroke="none" stroke-width="1" fill="none" fill-rule="evenodd">
        <g id="Correos_web_UIkit_54_Illustrations" transform="translate(-419.000000, -5001.000000)">
            <g id="Group" transform="translate(400.000000, 4952.000000)">
                <g id="Group-26" transform="translate(19.720000, 48.720000)">
                    <g id="Group-3" transform="translate(0.000000, 1.133320)">
                        <mask id="mask-2" fill="white">
                            <use xlink:href="#path-1"></use>
                        </mask>
                        <g id="Clip-2"></g>
                        <path d="M19.957452,30.861568 C-13.314828,46.699048 -11.727948,107.284688 77.210412,131.368608 C166.149932,155.450208 219.823132,36.213808 177.429772,10.106848 C135.036412,-15.997792 53.229732,15.024088 19.957452,30.861568" id="Fill-1" fill="#F3F2F2" mask="url(#mask-2)"></path>
                    </g>
                    <path d="M159.010132,89.162356 L160.461292,87.712356 C163.977252,84.196396 165.952732,79.426476 165.952732,74.453556 L165.952732,37.950676 C165.952732,36.129476 164.476052,34.653956 162.656012,34.653956 C158.942852,34.653956 155.932652,37.662996 155.932652,41.376156 C155.932652,43.667156 154.771492,45.802716 152.840092,47.036956 C150.007372,48.846556 144.829132,51.007636 135.759092,51.758156 C131.535532,52.107316 127.365332,50.588876 124.369052,47.592596 L111.792332,35.015876 C109.563972,32.786356 106.249852,32.046276 103.286052,33.121596 C97.329452,35.288476 86.528692,39.521316 74.095812,45.821276 C55.153012,55.417956 38.392172,58.788916 29.389412,60.611276 C20.386652,62.431316 16.192092,67.950596 16.192092,76.108876 C16.192092,88.495356 48.080492,96.588676 48.080492,96.588676 L156.690132,96.588676 L159.010132,89.162356 Z" id="Fill-4" fill="#FFCD00"></path>
                    <path d="M135.960236,97.080632 C135.541476,97.080632 135.141276,96.838192 134.961476,96.429872 C133.246996,92.540392 132.378156,88.404992 132.378156,84.144312 C132.378156,67.328952 146.058036,53.649072 162.873396,53.649072 C163.930156,53.649072 165.004316,53.703592 166.065716,53.814952 C166.665436,53.877592 167.100436,54.414672 167.037796,55.012072 C166.975156,55.611792 166.438076,56.049112 165.839516,55.984152 C164.853516,55.880912 163.854756,55.828712 162.873396,55.828712 C147.260956,55.828712 134.558956,68.531872 134.558956,84.144312 C134.558956,88.101072 135.366316,91.938352 136.957836,95.550592 C137.200276,96.100432 136.950876,96.745392 136.399876,96.987832 C136.256036,97.051632 136.107556,97.080632 135.960236,97.080632" id="Fill-6" fill="#002E6D"></path>
                    <path d="M127.036472,92.118964 C126.731392,92.118964 126.427472,91.991364 126.211712,91.741964 L121.024192,85.755204 C118.563832,84.596364 94.351152,73.384964 79.040312,73.384964 C64.098352,73.384964 43.635952,73.384964 35.446352,59.825724 C35.134312,59.309524 35.300192,58.640204 35.816392,58.327004 C36.331432,58.016124 37.001912,58.182004 37.313952,58.698204 C44.289032,70.247164 61.031312,71.203004 79.040312,71.203004 C95.602792,71.203004 121.093792,83.366764 122.171432,83.884124 L122.375592,83.981564 L127.860072,90.314004 C128.255632,90.769884 128.205752,91.458924 127.749872,91.853324 C127.543392,92.031964 127.289352,92.118964 127.036472,92.118964" id="Fill-8" fill="#002E6D"></path>
                    <path d="M98.915056,48.136404 L98.915056,48.136404 C97.779416,48.804564 96.318976,48.426404 95.649656,47.291924 L90.854216,39.151044 C90.186056,38.015404 90.564216,36.554964 91.698696,35.885644 C92.834336,35.217484 94.295936,35.594484 94.964096,36.730124 L99.759536,44.872164 C100.427696,46.005484 100.050696,47.468244 98.915056,48.136404" id="Fill-10" fill="#002E6D"></path>
                    <path d="M89.313272,52.3131 L89.313272,52.3131 C88.177632,52.98126 86.716032,52.6031 86.047872,51.46746 L81.252432,43.32774 C80.584272,42.1921 80.962432,40.73166 82.096912,40.06234 C83.231392,39.39302 84.694152,39.77118 85.362312,40.90682 L90.157752,49.04886 C90.825912,50.18218 90.447752,51.64494 89.313272,52.3131" id="Fill-12" fill="#002E6D"></path>
                    <path d="M79.182528,56.835244 L79.182528,56.835244 C78.046888,57.503404 76.585288,57.126404 75.917128,55.990764 L71.121688,47.849884 C70.453528,46.715404 70.831688,45.253804 71.966168,44.584484 C73.100648,43.916324 74.563408,44.294484 75.231568,45.428964 L80.027008,53.571004 C80.695168,54.705484 80.317008,56.167084 79.182528,56.835244" id="Fill-14" fill="#002E6D"></path>
                    <path d="M69.429016,61.90572 L69.429016,61.90572 C68.294536,62.57388 66.832936,62.19572 66.164776,61.06124 L61.369336,52.92036 C60.700016,51.78472 61.078176,50.32428 62.212656,49.65496 C63.348296,48.9868 64.809896,49.3638 65.478056,50.49944 L70.273496,58.64148 C70.942816,59.77596 70.564656,61.23756 69.429016,61.90572" id="Fill-16" fill="#002E6D"></path>
                    <path d="M16.191976,76.917744 C16.191976,76.917744 14.668896,97.983344 71.953176,97.983344 C129.238616,97.983344 164.127936,85.552784 164.127936,85.552784 L164.127936,83.276864 L50.415456,83.276864 C21.315696,83.276864 16.191976,76.917744 16.191976,76.917744" id="Fill-18" fill="#B38F00"></path>
                    <path d="M16.191976,76.917744 C16.191976,76.917744 14.668896,100.259264 71.953176,100.259264 L165.982776,100.259264 L164.127936,85.552784 L50.415456,85.552784 C21.315696,85.552784 16.191976,76.917744 16.191976,76.917744" id="Fill-20" fill="#002E6D"></path>
                    <polygon id="Fill-22" fill="#333333" points="8.77424 38.108668 10.0456 38.108668 8.19424 31.901508 6.34404 38.108668 7.61424 38.108668 7.61424 94.945188 6.34404 94.945188 8.19424 101.152348 10.0456 94.945188 8.77424 94.945188"></polygon>
                    <polygon id="Fill-24" fill="#333333" points="162.849268 110.727684 162.849268 111.997884 169.056428 110.147684 162.849268 108.296324 162.849268 109.567684 24.345268 109.567684 24.345268 108.296324 18.138108 110.147684 24.345268 111.997884 24.345268 110.727684"></polygon>
                </g>
            </g>
        </g>
    </g>
</svg>