<?xml version="1.0" encoding="UTF-8"?>
<svg width="193px" height="162px" viewBox="0 0 193 162" version="1.1" xmlns="http://www.w3.org/2000/svg" xmlns:xlink="http://www.w3.org/1999/xlink">
    <title>atoms/img/ilustraciones/size/envio_grande</title>
    <defs>
        <polygon id="path-1" points="0 0.0267824864 192.192862 0.0267824864 192.192862 134.56 0 134.56"></polygon>
    </defs>
    <g id="UI-KIT" stroke="none" stroke-width="1" fill="none" fill-rule="evenodd">
        <g id="Correos_web_UIkit_54_Illustrations" transform="translate(-755.000000, -4987.000000)">
            <g id="Group" transform="translate(736.000000, 4952.000000)">
                <g id="Group-24" transform="translate(19.720000, 35.960000)">
                    <g id="Group-3" transform="translate(0.000000, 26.086080)">
                        <mask id="mask-2" fill="white">
                            <use xlink:href="#path-1"></use>
                        </mask>
                        <g id="Clip-2"></g>
                        <path d="M19.957684,30.861568 C-13.314596,46.699048 -11.727716,107.284688 77.210644,131.368608 C166.150164,155.450208 219.822204,36.213808 177.428844,10.106848 C135.036644,-15.997792 53.228804,15.024088 19.957684,30.861568" id="Fill-1" fill="#F3F2F2" mask="url(#mask-2)"></path>
                    </g>
                    <path d="M172.126136,64.900028 C172.126136,60.161428 171.605296,55.546948 170.641336,51.098348 C164.312376,21.887228 138.331856,0.000348 107.226456,0.000348 C71.383616,0.000348 42.327936,29.057188 42.327936,64.900028 L109.152056,64.864068 L110.001176,119.915348" id="Fill-4" fill="#002E6D"></path>
                    <path d="M35.557132,104.129372 L37.840012,126.497652 L110.717012,126.497652 C144.174892,126.497652 172.126252,106.322932 172.126252,61.817212 C172.126252,57.904532 171.695892,54.093932 170.900132,50.420212 C165.673172,26.298012 139.226332,10.062652 110.772692,10.062652 C81.172972,10.062652 53.957052,32.218652 53.957052,61.817212 L109.140572,61.787052" id="Fill-6" fill="#FFCD00"></path>
                    <path d="M136.811792,102.282884 C136.811792,96.390084 132.034912,91.613204 126.142112,91.613204 C120.249312,91.613204 115.472432,96.390084 115.472432,102.282884 C115.472432,108.175684 120.249312,112.952564 126.142112,112.952564 C132.034912,112.952564 136.811792,108.175684 136.811792,102.282884" id="Fill-8" fill="#002453"></path>
                    <path d="M120.924084,67.785296 C123.934284,57.883536 116.004524,50.421256 104.641164,50.421256 L35.557364,104.129256 L35.766164,107.098856 C83.734484,107.098856 110.926044,101.747776 117.983484,78.537336" id="Fill-10" fill="#C39C5D"></path>
                    <polygon id="Fill-12" fill="#002E6D" points="48.315972 126.497884 37.840012 126.497884 35.767092 107.098044 48.315972 107.098044"></polygon>
                    <path d="M115.712668,77.901308 C108.656388,101.112908 77.505748,104.128908 35.556668,104.128908 L43.692908,50.422068 L104.641628,50.422068 C116.003828,50.422068 121.663468,58.167388 118.653268,68.069148 L115.712668,77.901308 Z" id="Fill-14" fill="#C3E4EB"></path>
                    <path d="M104.954828,50.421604 L94.897628,50.421604 L85.803228,100.493004 C95.018268,98.447924 102.538548,95.308964 107.939508,90.527444 L114.739428,53.088444 C112.277908,51.396004 108.975388,50.421604 104.954828,50.421604" id="Fill-16" fill="#F3F2F2"></path>
                    <path d="M80.839588,50.421604 L71.335708,102.749204 C74.472348,102.424404 77.479068,102.027684 80.351228,101.547444 L89.637028,50.421604 L80.839588,50.421604 Z" id="Fill-18" fill="#F3F2F2"></path>
                    <polygon id="Fill-20" fill="#333333" points="28.301448 9.71848 29.571648 9.71848 27.721448 3.51132 25.871248 9.71848 27.141448 9.71848 27.141448 119.8976 25.871248 119.8976 27.721448 126.10476 29.571648 119.8976 28.301448 119.8976"></polygon>
                    <polygon id="Fill-22" fill="#333333" points="165.91944 135.680444 165.91944 136.950644 172.1266 135.100444 165.91944 133.249084 165.91944 134.520444 43.8712 134.520444 43.8712 133.249084 37.6652 135.100444 43.8712 136.950644 43.8712 135.680444"></polygon>
                </g>
            </g>
        </g>
    </g>
</svg>