<?xml version="1.0" encoding="UTF-8"?>
<svg width="193px" height="161px" viewBox="0 0 193 161" version="1.1" xmlns="http://www.w3.org/2000/svg" xmlns:xlink="http://www.w3.org/1999/xlink">
    <title>atoms/img/ilustraciones/size/envio_pequeño</title>
    <defs>
        <polygon id="path-1" points="0 0.0267824864 192.192978 0.0267824864 192.192978 134.56 0 134.56"></polygon>
        <polygon id="path-3" points="0 159.4014 192.19344 159.4014 192.19344 0 0 0"></polygon>
    </defs>
    <g id="UI-KIT" stroke="none" stroke-width="1" fill="none" fill-rule="evenodd">
        <g id="Correos_web_UIkit_54_Illustrations" transform="translate(-83.000000, -4987.000000)">
            <g id="Group" transform="translate(64.000000, 4952.000000)">
                <g id="Group-14" transform="translate(19.720000, 35.960000)">
                    <g id="Group-3" transform="translate(0.000000, 24.841400)">
                        <mask id="mask-2" fill="white">
                            <use xlink:href="#path-1"></use>
                        </mask>
                        <g id="Clip-2"></g>
                        <path d="M19.9578,30.861568 C-13.31448,46.699048 -11.7276,107.284688 77.21076,131.368608 C166.15028,155.450208 219.82232,36.213808 177.42896,10.106848 C135.03676,-15.997792 53.22892,15.024088 19.9578,30.861568" id="Fill-1" fill="#F3F2F2" mask="url(#mask-2)"></path>
                    </g>
                    <path d="M137.039036,125.253204 L54.270716,125.253204 L54.270716,2.845364 L137.039036,2.845364 C142.757836,2.845364 147.393196,7.480724 147.393196,13.198364 L147.393196,114.899044 C147.393196,120.617844 142.757836,125.253204 137.039036,125.253204" id="Fill-4" fill="#B38F00"></path>
                    <path d="M139.028784,122.408652 L64.251704,122.408652 L64.251704,0.000812 L139.028784,0.000812 C144.747584,0.000812 149.382944,4.636172 149.382944,10.353812 L149.382944,112.054492 C149.382944,117.773292 144.747584,122.408652 139.028784,122.408652" id="Fill-6" fill="#FFCD00"></path>
                    <mask id="mask-4" fill="white">
                        <use xlink:href="#path-3"></use>
                    </mask>
                    <g id="Clip-9"></g>
                    <polygon id="Fill-8" fill="#002E6D" mask="url(#mask-4)" points="54.2706 122.409 64.45656 122.409 64.45656 0.00116 54.2706 0.00116"></polygon>
                    <polygon id="Fill-10" fill="#F3F2F2" mask="url(#mask-4)" points="85.53492 42.13468 128.09996 42.13468 128.09996 20.41948 85.53492 20.41948"></polygon>
                    <polygon id="Fill-11" fill="#F3F2F2" mask="url(#mask-4)" points="106.81744 107.1028 128.09996 107.1028 128.09996 99.17188 106.81744 99.17188"></polygon>
                    <polygon id="Fill-12" fill="#333333" mask="url(#mask-4)" points="45.831716 6.207044 47.103076 6.207044 45.251716 -0.000116 43.401516 6.207044 44.671716 6.207044 44.671716 118.653964 43.401516 118.653964 45.251716 124.859964 47.103076 118.653964 45.831716 118.653964"></polygon>
                    <polygon id="Fill-13" fill="#333333" mask="url(#mask-4)" points="144.84862 134.435764 144.84862 135.705964 151.05578 133.855764 144.84862 132.004404 144.84862 133.275764 61.4017 133.275764 61.4017 132.004404 55.1957 133.855764 61.4017 135.705964 61.4017 134.435764"></polygon>
                </g>
            </g>
        </g>
    </g>
</svg>