<?xml version="1.0" encoding="UTF-8"?>
<svg width="193px" height="165px" viewBox="0 0 193 165" version="1.1" xmlns="http://www.w3.org/2000/svg" xmlns:xlink="http://www.w3.org/1999/xlink">
    <title>atoms/img/ilustraciones/size/envio_extragrande</title>
    <defs>
        <polygon id="path-1" points="0 0.0267824864 192.19344 0.0267824864 192.19344 134.56 0 134.56"></polygon>
        <polygon id="path-3" points="0 163.95324 192.19344 163.95324 192.19344 0 0 0"></polygon>
    </defs>
    <g id="UI-KIT" stroke="none" stroke-width="1" fill="none" fill-rule="evenodd">
        <g id="Correos_web_UIkit_54_Illustrations" transform="translate(-1091.000000, -4985.000000)">
            <g id="Group" transform="translate(1072.000000, 4952.000000)">
                <g id="Group-22" transform="translate(19.720000, 33.640000)">
                    <g id="Group-3" transform="translate(0.000000, 29.393240)">
                        <mask id="mask-2" fill="white">
                            <use xlink:href="#path-1"></use>
                        </mask>
                        <g id="Clip-2"></g>
                        <path d="M19.957568,30.861568 C-13.314712,46.699048 -11.727832,107.284688 77.210528,131.368608 C166.150048,155.450208 219.823248,36.213808 177.429888,10.106848 C135.036528,-15.997792 53.229848,15.024088 19.957568,30.861568" id="Fill-1" fill="#F3F2F2" mask="url(#mask-2)"></path>
                    </g>
                    <path d="M171.839964,16.727664 L27.056884,16.727664 C23.214964,16.727664 20.100364,19.842264 20.100364,23.683024 L20.100364,27.226824 L20.100364,113.536624 L20.100364,117.080424 C20.100364,120.921184 23.214964,124.035784 27.056884,124.035784 L171.839964,124.035784 C175.681884,124.035784 178.795324,120.921184 178.795324,117.080424 L178.795324,113.536624 L178.795324,27.226824 L178.795324,23.683024 C178.795324,19.842264 175.681884,16.727664 171.839964,16.727664" id="Fill-4" fill="#B38F00"></path>
                    <path d="M123.787196,6.23442 L87.156716,6.23442 C85.435276,6.23442 84.039796,4.83894 84.039796,3.11634 C84.039796,1.39606 85.435276,0.00058 87.156716,0.00058 L123.787196,0.00058 C125.508636,0.00058 126.904116,1.39606 126.904116,3.11634 C126.904116,4.83894 125.508636,6.23442 123.787196,6.23442" id="Fill-6" fill="#002453"></path>
                    <path d="M90.292776,19.844004 C88.571336,19.844004 87.175856,18.448524 87.175856,16.727084 L87.175856,3.116804 C87.175856,1.396524 88.571336,0.001044 90.292776,0.001044 C92.014216,0.001044 93.409696,1.396524 93.409696,3.116804 L93.409696,16.727084 C93.409696,18.448524 92.014216,19.844004 90.292776,19.844004" id="Fill-8" fill="#002453"></path>
                    <path d="M120.65102,19.844004 C118.92958,19.844004 117.5341,18.448524 117.5341,16.727084 L117.5341,3.116804 C117.5341,1.396524 118.92958,0.001044 120.65102,0.001044 C122.37246,0.001044 123.7691,1.396524 123.7691,3.116804 L123.7691,16.727084 C123.7691,18.448524 122.37246,19.844004 120.65102,19.844004" id="Fill-10" fill="#002453"></path>
                    <path d="M177.863728,16.727664 L33.080648,16.727664 C29.238728,16.727664 26.125288,19.842264 26.125288,23.683024 L26.125288,27.226824 L26.125288,113.536624 L26.125288,117.080424 C26.125288,120.921184 29.238728,124.035784 33.080648,124.035784 L177.863728,124.035784 C181.705648,124.035784 184.819088,120.921184 184.819088,117.080424 L184.819088,113.536624 L184.819088,27.226824 L184.819088,23.683024 C184.819088,19.842264 181.705648,16.727664 177.863728,16.727664" id="Fill-12" fill="#FFCD00"></path>
                    <mask id="mask-4" fill="white">
                        <use xlink:href="#path-3"></use>
                    </mask>
                    <g id="Clip-15"></g>
                    <polygon id="Fill-14" fill="#002E6D" mask="url(#mask-4)" points="43.44664 124.03532 60.77008 124.03532 60.77008 16.7272 43.44664 16.7272"></polygon>
                    <polygon id="Fill-16" fill="#002E6D" mask="url(#mask-4)" points="150.1736 124.03532 167.49588 124.03532 167.49588 16.7272 150.1736 16.7272"></polygon>
                    <polygon id="Fill-17" fill="#F3F2F2" mask="url(#mask-4)" points="143.669248 100.262396 123.286888 106.376756 118.993728 92.065836 139.376088 85.951476"></polygon>
                    <path d="M66.583536,129.805044 L66.583536,129.805044 C63.480536,129.805044 60.964496,127.289004 60.964496,124.186004 L60.964496,124.035204 L72.202576,124.035204 L72.202576,124.186004 C72.202576,127.289004 69.686536,129.805044 66.583536,129.805044" id="Fill-18" fill="#C39C5D" mask="url(#mask-4)"></path>
                    <path d="M144.55456,129.805044 L144.55456,129.805044 C141.45156,129.805044 138.93552,127.289004 138.93552,124.186004 L138.93552,124.035204 L150.1736,124.035204 L150.1736,124.186004 C150.1736,127.289004 147.65756,129.805044 144.55456,129.805044" id="Fill-19" fill="#C39C5D" mask="url(#mask-4)"></path>
                    <polygon id="Fill-20" fill="#333333" mask="url(#mask-4)" points="11.022552 22.30564 12.293912 22.30564 10.442552 16.09848 8.592352 22.30564 9.862552 22.30564 9.862552 123.20476 8.592352 123.20476 10.442552 129.41192 12.293912 123.20476 11.022552 123.20476"></polygon>
                    <polygon id="Fill-21" fill="#333333" mask="url(#mask-4)" points="174.161124 138.987604 174.161124 140.257804 180.368284 138.407604 174.161124 136.556244 174.161124 137.827604 26.592884 137.827604 26.592884 136.556244 20.386884 138.407604 26.592884 140.257804 26.592884 138.987604"></polygon>
                </g>
            </g>
        </g>
    </g>
</svg>